<svg xmlns="http://www.w3.org/2000/svg" class="graphdiagram" viewBox="-1020.0913089396853 -292.8568314216107 2638.0695026003555 1288.1198743165799"><g class="layer relationships"><g class="related-pair"><g class="relationship" transform="translate(-785.7381076812744,22.842023849487305) rotate(0)"><path class="relationship" d="M 126.63403849833232 4 L 740.5956332248986 4 L 740.5956332248986 16 L 772.5956332248986 0 L 740.5956332248986 -16 L 740.5956332248986 -4 L 126.63403849833232 -4 Z" fill="rgb(0, 0, 0)" stroke="rgb(51, 51, 51)" stroke-width="0px"/><text class="type" text-anchor="middle" baseline-shift="30%" alignment-baseline="alphabetic" x="433.61483586161546" y="0" font-size="50px" font-family="&quot;Gill Sans&quot;, &quot;Gill Sans MT&quot;, Calibri, sans-serif">CONSISTS_OF</text></g></g><g class="related-pair"><g class="relationship" transform="translate(114.23230171203613,22.842023849487305) rotate(90)"><path class="relationship" d="M 127.37477616841198 4 L 468.5238037691636 4 L 468.5238037691636 16 L 500.5238037691636 0 L 468.5238037691636 -16 L 468.5238037691636 -4 L 127.37477616841198 -4 Z" fill="rgb(0, 0, 0)" stroke="rgb(51, 51, 51)" stroke-width="0px"/><text class="type" text-anchor="middle" baseline-shift="30%" alignment-baseline="alphabetic" x="297.94928996878775" y="0" font-size="50px" font-family="&quot;Gill Sans&quot;, &quot;Gill Sans MT&quot;, Calibri, sans-serif">Rented By</text></g></g><g class="related-pair"><g class="relationship" transform="translate(-785.7381076812744,706.586669921875) rotate(-90)"><path class="relationship" d="M 100.35229387040818 4 L 525.1106075740554 4 L 525.1106075740554 16 L 557.1106075740554 0 L 525.1106075740554 -16 L 525.1106075740554 -4 L 100.35229387040818 -4 Z" fill="rgb(0, 0, 0)" stroke="rgb(51, 51, 51)" stroke-width="0px"/><text class="type" text-anchor="middle" baseline-shift="30%" alignment-baseline="alphabetic" x="312.7314507222318" y="0" font-size="50px" font-family="&quot;Gill Sans&quot;, &quot;Gill Sans MT&quot;, Calibri, sans-serif">HAS</text></g></g><g class="related-pair"><g class="relationship" transform="translate(696.5093994140625,22.842023849487305) rotate(180)"><path class="relationship" d="M 104.22564079451323 4 L 422.9023215336144 4 L 422.9023215336144 16 L 454.9023215336144 0 L 422.9023215336144 -16 L 422.9023215336144 -4 L 104.22564079451323 -4 Z" fill="rgb(0, 0, 0)" stroke="rgb(51, 51, 51)" stroke-width="0px"/><text class="type" text-anchor="middle" baseline-shift="30%" alignment-baseline="alphabetic" transform="rotate(180)" x="-263.56398116406376" y="0" font-size="50px" font-family="&quot;Gill Sans&quot;, &quot;Gill Sans MT&quot;, Calibri, sans-serif">NEEDED_FOR</text></g></g><g class="related-pair"><g class="relationship" transform="translate(1118.7119750976562,343.1061325073242) rotate(-142.8176623871023)"><path class="relationship" d="M 82.99660873355334 4 L 393.70276400019065 4 L 393.70276400019065 16 L 425.70276400019065 0 L 393.70276400019065 -16 L 393.70276400019065 -4 L 82.99660873355334 -4 Z" fill="rgb(0, 0, 0)" stroke="rgb(51, 51, 51)" stroke-width="0px"/><text class="type" text-anchor="middle" baseline-shift="30%" alignment-baseline="alphabetic" transform="rotate(180)" x="-238.349686366872" y="0" font-size="50px" font-family="&quot;Gill Sans&quot;, &quot;Gill Sans MT&quot;, Calibri, sans-serif">NEEDED_TO</text></g></g><g class="related-pair"><g class="relationship" transform="translate(1257.4451904296875,-87.06231689453125) rotate(168.91444803578435)"><path class="relationship" d="M 83.69120635598269 4 L 435.37555388294925 4 L 435.37555388294925 16 L 467.37555388294925 0 L 435.37555388294925 -16 L 435.37555388294925 -4 L 83.69120635598269 -4 Z" fill="rgb(0, 0, 0)" stroke="rgb(51, 51, 51)" stroke-width="0px"/><text class="type" text-anchor="middle" baseline-shift="30%" alignment-baseline="alphabetic" transform="rotate(180)" x="-259.53338011946596" y="0" font-size="50px" font-family="&quot;Gill Sans&quot;, &quot;Gill Sans MT&quot;, Calibri, sans-serif">WORKED_ON</text></g></g></g><g class="layer nodes"><circle class="node node-id-1" r="111.63403849833232" fill="rgb(255, 255, 255)" stroke="rgb(0, 0, 0)" stroke-width="8px" cx="-785.7381076812744" cy="22.842023849487305"/><circle class="node node-id-2" r="112.37477616841198" fill="rgb(255, 255, 255)" stroke="rgb(0, 0, 0)" stroke-width="8px" cx="114.23230171203613" cy="22.842023849487305"/><circle class="node node-id-3" r="90.81379884619285" fill="rgb(255, 255, 255)" stroke="rgb(0, 0, 0)" stroke-width="8px" cx="114.23230171203613" cy="629.1796264648438"/><circle class="node node-id-4" r="85.35229387040818" fill="rgb(255, 255, 255)" stroke="rgb(0, 0, 0)" stroke-width="8px" cx="-785.7381076812744" cy="706.586669921875"/><circle class="node node-id-5" r="89.22564079451323" fill="rgb(255, 255, 255)" stroke="rgb(0, 0, 0)" stroke-width="8px" cx="696.5093994140625" cy="22.842023849487305"/><circle class="node node-id-6" r="67.99660873355334" fill="rgb(255, 255, 255)" stroke="rgb(0, 0, 0)" stroke-width="8px" cx="1118.7119750976562" cy="343.1061325073242"/><circle class="node node-id-7" r="68.69120635598269" fill="rgb(255, 255, 255)" stroke="rgb(0, 0, 0)" stroke-width="8px" cx="1257.4451904296875" cy="-87.06231689453125"/><g class="caption"><text class="caption node" text-anchor="middle" alignment-baseline="central" x="-785.7381076812744" y="22.842023849487305" fill="rgb(51, 51, 51)" font-size="50px" font-family="&quot;Gill Sans&quot;, &quot;Gill Sans MT&quot;, Calibri, sans-serif">Portfolio</text></g><g class="caption"><text class="caption node" text-anchor="middle" alignment-baseline="central" x="114.23230171203613" y="22.842023849487305" fill="rgb(51, 51, 51)" font-size="50px" font-family="&quot;Gill Sans&quot;, &quot;Gill Sans MT&quot;, Calibri, sans-serif">Property</text></g><g class="caption"><text class="caption node" text-anchor="middle" alignment-baseline="central" x="114.23230171203613" y="629.1796264648438" fill="rgb(51, 51, 51)" font-size="50px" font-family="&quot;Gill Sans&quot;, &quot;Gill Sans MT&quot;, Calibri, sans-serif">Tenant</text></g><g class="caption"><text class="caption node" text-anchor="middle" alignment-baseline="central" x="-785.7381076812744" y="706.586669921875" fill="rgb(51, 51, 51)" font-size="50px" font-family="&quot;Gill Sans&quot;, &quot;Gill Sans MT&quot;, Calibri, sans-serif">Client</text></g><g class="caption"><text class="caption node" text-anchor="middle" alignment-baseline="central" x="696.5093994140625" y="22.842023849487305" fill="rgb(51, 51, 51)" font-size="50px" font-family="&quot;Gill Sans&quot;, &quot;Gill Sans MT&quot;, Calibri, sans-serif">Repair</text></g><g class="caption"><text class="caption node" text-anchor="middle" alignment-baseline="central" x="1118.7119750976562" y="343.1061325073242" fill="rgb(51, 51, 51)" font-size="50px" font-family="&quot;Gill Sans&quot;, &quot;Gill Sans MT&quot;, Calibri, sans-serif">Part</text></g><g class="caption"><text class="caption node" text-anchor="middle" alignment-baseline="central" x="1257.4451904296875" y="-87.06231689453125" fill="rgb(51, 51, 51)" font-size="50px" font-family="&quot;Gill Sans&quot;, &quot;Gill Sans MT&quot;, Calibri, sans-serif">Staff</text></g></g><g class="layer properties"><g class="speech-bubble node-speech-bubble" transform="translate(-864.6752933146853,-56.09516178392359) "><path class="speech-bubble-outline" transform="scale(-1,-1) " d="M 0 0 L 30 20 L 143.916015625 20 A 10 10 0 0 1 153.916015625 30 L 153.916015625 80 A 10 10 0 0 1 143.916015625 90 L 30 90 A 10 10 0 0 1 20 80 L 20 30 Z" fill="rgb(255, 255, 255)" stroke="rgb(0, 0, 0)" stroke-width="3px"/><text class="speech-bubble-content property-key" x="-82.6123046875" y="-55" alignment-baseline="central" text-anchor="end" font-size="50px" font-family="&quot;Gill Sans&quot;, &quot;Gill Sans MT&quot;, Calibri, sans-serif" xml:space="preserve">id: </text><text class="speech-bubble-content property-value" x="-82.6123046875" y="-55" alignment-baseline="central" font-size="50px" font-family="&quot;Gill Sans&quot;, &quot;Gill Sans MT&quot;, Calibri, sans-serif">int</text></g><g class="speech-bubble node-speech-bubble" transform="translate(114.23230171203613,-89.53275231892468) "><path class="speech-bubble-outline" transform="scale(1,-1) " d="M 0 0 L -10 20 L -152.7587890625 20 A 10 10 0 0 0 -162.7587890625 30 L -162.7587890625 180 A 10 10 0 0 0 -152.7587890625 190 L 152.7587890625 190 A 10 10 0 0 0 162.7587890625 180 L 162.7587890625 30 A 10 10 0 0 0 152.7587890625 20 L 10 20 Z" fill="rgb(255, 255, 255)" stroke="rgb(0, 0, 0)" stroke-width="3px"/><text class="speech-bubble-content property-key" x="25.146484375" y="-155" alignment-baseline="central" text-anchor="end" font-size="50px" font-family="&quot;Gill Sans&quot;, &quot;Gill Sans MT&quot;, Calibri, sans-serif" xml:space="preserve">id: </text><text class="speech-bubble-content property-key" x="25.146484375" y="-105" alignment-baseline="central" text-anchor="end" font-size="50px" font-family="&quot;Gill Sans&quot;, &quot;Gill Sans MT&quot;, Calibri, sans-serif" xml:space="preserve">address: </text><text class="speech-bubble-content property-key" x="25.146484375" y="-55" alignment-baseline="central" text-anchor="end" font-size="50px" font-family="&quot;Gill Sans&quot;, &quot;Gill Sans MT&quot;, Calibri, sans-serif" xml:space="preserve">type: </text><text class="speech-bubble-content property-value" x="25.146484375" y="-155" alignment-baseline="central" font-size="50px" font-family="&quot;Gill Sans&quot;, &quot;Gill Sans MT&quot;, Calibri, sans-serif">int,</text><text class="speech-bubble-content property-value" x="25.146484375" y="-105" alignment-baseline="central" font-size="50px" font-family="&quot;Gill Sans&quot;, &quot;Gill Sans MT&quot;, Calibri, sans-serif">String,</text><text class="speech-bubble-content property-value" x="25.146484375" y="-55" alignment-baseline="central" font-size="50px" font-family="&quot;Gill Sans&quot;, &quot;Gill Sans MT&quot;, Calibri, sans-serif">String</text></g><g class="speech-bubble node-speech-bubble" transform="translate(114.23230171203613,719.9934253110366) "><path class="speech-bubble-outline" transform="scale(1,1) " d="M 0 0 L -10 20 L -130.65185546875 20 A 10 10 0 0 0 -140.65185546875 30 L -140.65185546875 180 A 10 10 0 0 0 -130.65185546875 190 L 130.65185546875 190 A 10 10 0 0 0 140.65185546875 180 L 140.65185546875 30 A 10 10 0 0 0 130.65185546875 20 L 10 20 Z" fill="rgb(255, 255, 255)" stroke="rgb(0, 0, 0)" stroke-width="3px"/><text class="speech-bubble-content property-key" x="3.03955078125" y="55" alignment-baseline="central" text-anchor="end" font-size="50px" font-family="&quot;Gill Sans&quot;, &quot;Gill Sans MT&quot;, Calibri, sans-serif" xml:space="preserve">id: </text><text class="speech-bubble-content property-key" x="3.03955078125" y="105" alignment-baseline="central" text-anchor="end" font-size="50px" font-family="&quot;Gill Sans&quot;, &quot;Gill Sans MT&quot;, Calibri, sans-serif" xml:space="preserve">name: </text><text class="speech-bubble-content property-key" x="3.03955078125" y="155" alignment-baseline="central" text-anchor="end" font-size="50px" font-family="&quot;Gill Sans&quot;, &quot;Gill Sans MT&quot;, Calibri, sans-serif" xml:space="preserve">type: </text><text class="speech-bubble-content property-value" x="3.03955078125" y="55" alignment-baseline="central" font-size="50px" font-family="&quot;Gill Sans&quot;, &quot;Gill Sans MT&quot;, Calibri, sans-serif">int,</text><text class="speech-bubble-content property-value" x="3.03955078125" y="105" alignment-baseline="central" font-size="50px" font-family="&quot;Gill Sans&quot;, &quot;Gill Sans MT&quot;, Calibri, sans-serif">String,</text><text class="speech-bubble-content property-value" x="3.03955078125" y="155" alignment-baseline="central" font-size="50px" font-family="&quot;Gill Sans&quot;, &quot;Gill Sans MT&quot;, Calibri, sans-serif">String</text></g><g class="speech-bubble node-speech-bubble" transform="translate(-785.7381076812744,791.9389637922832) "><path class="speech-bubble-outline" transform="scale(1,1) " d="M 0 0 L -10 20 L -136.90185546875 20 A 10 10 0 0 0 -146.90185546875 30 L -146.90185546875 180 A 10 10 0 0 0 -136.90185546875 190 L 136.90185546875 190 A 10 10 0 0 0 146.90185546875 180 L 146.90185546875 30 A 10 10 0 0 0 136.90185546875 20 L 10 20 Z" fill="rgb(255, 255, 255)" stroke="rgb(0, 0, 0)" stroke-width="3px"/><text class="speech-bubble-content property-key" x="9.28955078125" y="55" alignment-baseline="central" text-anchor="end" font-size="50px" font-family="&quot;Gill Sans&quot;, &quot;Gill Sans MT&quot;, Calibri, sans-serif" xml:space="preserve">id: </text><text class="speech-bubble-content property-key" x="9.28955078125" y="105" alignment-baseline="central" text-anchor="end" font-size="50px" font-family="&quot;Gill Sans&quot;, &quot;Gill Sans MT&quot;, Calibri, sans-serif" xml:space="preserve">fname: </text><text class="speech-bubble-content property-key" x="9.28955078125" y="155" alignment-baseline="central" text-anchor="end" font-size="50px" font-family="&quot;Gill Sans&quot;, &quot;Gill Sans MT&quot;, Calibri, sans-serif" xml:space="preserve">lname: </text><text class="speech-bubble-content property-value" x="9.28955078125" y="55" alignment-baseline="central" font-size="50px" font-family="&quot;Gill Sans&quot;, &quot;Gill Sans MT&quot;, Calibri, sans-serif">int,</text><text class="speech-bubble-content property-value" x="9.28955078125" y="105" alignment-baseline="central" font-size="50px" font-family="&quot;Gill Sans&quot;, &quot;Gill Sans MT&quot;, Calibri, sans-serif">String,</text><text class="speech-bubble-content property-value" x="9.28955078125" y="155" alignment-baseline="central" font-size="50px" font-family="&quot;Gill Sans&quot;, &quot;Gill Sans MT&quot;, Calibri, sans-serif">String</text></g><g class="speech-bubble node-speech-bubble" transform="translate(696.5093994140625,-66.38361694502592) "><path class="speech-bubble-outline" transform="scale(1,-1) " d="M 0 0 L -10 20 L -125.42724609375 20 A 10 10 0 0 0 -135.42724609375 30 L -135.42724609375 130 A 10 10 0 0 0 -125.42724609375 140 L 125.42724609375 140 A 10 10 0 0 0 135.42724609375 130 L 135.42724609375 30 A 10 10 0 0 0 125.42724609375 20 L 10 20 Z" fill="rgb(255, 255, 255)" stroke="rgb(0, 0, 0)" stroke-width="3px"/><text class="speech-bubble-content property-key" x="8.77685546875" y="-105" alignment-baseline="central" text-anchor="end" font-size="50px" font-family="&quot;Gill Sans&quot;, &quot;Gill Sans MT&quot;, Calibri, sans-serif" xml:space="preserve">id: </text><text class="speech-bubble-content property-key" x="8.77685546875" y="-55" alignment-baseline="central" text-anchor="end" font-size="50px" font-family="&quot;Gill Sans&quot;, &quot;Gill Sans MT&quot;, Calibri, sans-serif" xml:space="preserve">detail: </text><text class="speech-bubble-content property-value" x="8.77685546875" y="-105" alignment-baseline="central" font-size="50px" font-family="&quot;Gill Sans&quot;, &quot;Gill Sans MT&quot;, Calibri, sans-serif">int,</text><text class="speech-bubble-content property-value" x="8.77685546875" y="-55" alignment-baseline="central" font-size="50px" font-family="&quot;Gill Sans&quot;, &quot;Gill Sans MT&quot;, Calibri, sans-serif">String</text></g><g class="speech-bubble node-speech-bubble" transform="translate(1166.7928382308403,391.1869956405082) "><path class="speech-bubble-outline" transform="scale(1,1) " d="M 0 0 L 30 20 L 280.341796875 20 A 10 10 0 0 1 290.341796875 30 L 290.341796875 130 A 10 10 0 0 1 280.341796875 140 L 30 140 A 10 10 0 0 1 20 130 L 20 30 Z" fill="rgb(255, 255, 255)" stroke="rgb(0, 0, 0)" stroke-width="3px"/><text class="speech-bubble-content property-key" x="163.69140625" y="55" alignment-baseline="central" text-anchor="end" font-size="50px" font-family="&quot;Gill Sans&quot;, &quot;Gill Sans MT&quot;, Calibri, sans-serif" xml:space="preserve">id: </text><text class="speech-bubble-content property-key" x="163.69140625" y="105" alignment-baseline="central" text-anchor="end" font-size="50px" font-family="&quot;Gill Sans&quot;, &quot;Gill Sans MT&quot;, Calibri, sans-serif" xml:space="preserve">name: </text><text class="speech-bubble-content property-value" x="163.69140625" y="55" alignment-baseline="central" font-size="50px" font-family="&quot;Gill Sans&quot;, &quot;Gill Sans MT&quot;, Calibri, sans-serif">int,</text><text class="speech-bubble-content property-value" x="163.69140625" y="105" alignment-baseline="central" font-size="50px" font-family="&quot;Gill Sans&quot;, &quot;Gill Sans MT&quot;, Calibri, sans-serif">String</text></g><g class="speech-bubble node-speech-bubble" transform="translate(1326.1363967856703,-87.06231689453125) "><path class="speech-bubble-outline" transform="scale(1,1) " d="M 0 0 L 20 -10 L 20 -75 A 10 10 0 0 1 30 -85 L 303.8037109375 -85 A 10 10 0 0 1 313.8037109375 -75 L 313.8037109375 75 A 10 10 0 0 1 303.8037109375 85 L 30 85 A 10 10 0 0 1 20 75 L 20 10 Z" fill="rgb(255, 255, 255)" stroke="rgb(0, 0, 0)" stroke-width="3px"/><text class="speech-bubble-content property-key" x="176.19140625" y="-50" alignment-baseline="central" text-anchor="end" font-size="50px" font-family="&quot;Gill Sans&quot;, &quot;Gill Sans MT&quot;, Calibri, sans-serif" xml:space="preserve">id: </text><text class="speech-bubble-content property-key" x="176.19140625" y="0" alignment-baseline="central" text-anchor="end" font-size="50px" font-family="&quot;Gill Sans&quot;, &quot;Gill Sans MT&quot;, Calibri, sans-serif" xml:space="preserve">fname: </text><text class="speech-bubble-content property-value" x="176.19140625" y="-50" alignment-baseline="central" font-size="50px" font-family="&quot;Gill Sans&quot;, &quot;Gill Sans MT&quot;, Calibri, sans-serif">Int,</text><text class="speech-bubble-content property-value" x="176.19140625" y="0" alignment-baseline="central" font-size="50px" font-family="&quot;Gill Sans&quot;, &quot;Gill Sans MT&quot;, Calibri, sans-serif">String,</text><text class="speech-bubble-content property-key" x="176.19140625" y="50" alignment-baseline="central" text-anchor="end" font-size="50px" font-family="&quot;Gill Sans&quot;, &quot;Gill Sans MT&quot;, Calibri, sans-serif" xml:space="preserve">lname: </text><text class="speech-bubble-content property-value" x="176.19140625" y="50" alignment-baseline="central" font-size="50px" font-family="&quot;Gill Sans&quot;, &quot;Gill Sans MT&quot;, Calibri, sans-serif">String</text></g><g class="speech-bubble relationship-speech-bubble" transform="translate(114.23230171203613,320.79131381827506) "><path class="speech-bubble-outline" transform="scale(-1,1) " d="M 0 0 L 20 -10 L 20 -75 A 10 10 0 0 1 30 -85 L 443.4033203125 -85 A 10 10 0 0 1 453.4033203125 -75 L 453.4033203125 75 A 10 10 0 0 1 443.4033203125 85 L 30 85 A 10 10 0 0 1 20 75 L 20 10 Z" fill="rgb(255, 255, 255)" stroke="rgb(0, 0, 0)" stroke-width="3px"/><text class="speech-bubble-content property-key" x="-141.4013671875" y="-50" alignment-baseline="central" text-anchor="end" font-size="50px" font-family="&quot;Gill Sans&quot;, &quot;Gill Sans MT&quot;, Calibri, sans-serif" xml:space="preserve">start_date: </text><text class="speech-bubble-content property-key" x="-141.4013671875" y="0" alignment-baseline="central" text-anchor="end" font-size="50px" font-family="&quot;Gill Sans&quot;, &quot;Gill Sans MT&quot;, Calibri, sans-serif" xml:space="preserve">end_date: </text><text class="speech-bubble-content property-key" x="-141.4013671875" y="50" alignment-baseline="central" text-anchor="end" font-size="50px" font-family="&quot;Gill Sans&quot;, &quot;Gill Sans MT&quot;, Calibri, sans-serif" xml:space="preserve">monthly_rent: </text><text class="speech-bubble-content property-value" x="-141.4013671875" y="-50" alignment-baseline="central" font-size="50px" font-family="&quot;Gill Sans&quot;, &quot;Gill Sans MT&quot;, Calibri, sans-serif">Date,</text><text class="speech-bubble-content property-value" x="-141.4013671875" y="0" alignment-baseline="central" font-size="50px" font-family="&quot;Gill Sans&quot;, &quot;Gill Sans MT&quot;, Calibri, sans-serif">Date,</text><text class="speech-bubble-content property-value" x="-141.4013671875" y="50" alignment-baseline="central" font-size="50px" font-family="&quot;Gill Sans&quot;, &quot;Gill Sans MT&quot;, Calibri, sans-serif">int</text></g><g class="speech-bubble relationship-speech-bubble" transform="translate(928.8149048765284,199.05865522077713) "><path class="speech-bubble-outline" transform="scale(-1,1) " d="M 0 0 L 30 20 L 171.015625 20 A 10 10 0 0 1 181.015625 30 L 181.015625 80 A 10 10 0 0 1 171.015625 90 L 30 90 A 10 10 0 0 1 20 80 L 20 30 Z" fill="rgb(255, 255, 255)" stroke="rgb(0, 0, 0)" stroke-width="3px"/><text class="speech-bubble-content property-key" x="-82.6123046875" y="55" alignment-baseline="central" text-anchor="end" font-size="50px" font-family="&quot;Gill Sans&quot;, &quot;Gill Sans MT&quot;, Calibri, sans-serif" xml:space="preserve">qty: </text><text class="speech-bubble-content property-value" x="-82.6123046875" y="55" alignment-baseline="central" font-size="50px" font-family="&quot;Gill Sans&quot;, &quot;Gill Sans MT&quot;, Calibri, sans-serif">int</text></g></g><g class="layer overlay"><circle class="node overlay" r="115.63403849833232" stroke="none" fill="rgba(255, 255, 255, 0)" cx="-785.7381076812744" cy="22.842023849487305"/><circle class="node overlay" r="116.37477616841198" stroke="none" fill="rgba(255, 255, 255, 0)" cx="114.23230171203613" cy="22.842023849487305"/><circle class="node overlay" r="94.81379884619285" stroke="none" fill="rgba(255, 255, 255, 0)" cx="114.23230171203613" cy="629.1796264648438"/><circle class="node overlay" r="89.35229387040818" stroke="none" fill="rgba(255, 255, 255, 0)" cx="-785.7381076812744" cy="706.586669921875"/><circle class="node overlay" r="93.22564079451323" stroke="none" fill="rgba(255, 255, 255, 0)" cx="696.5093994140625" cy="22.842023849487305"/><circle class="node overlay" r="71.99660873355334" stroke="none" fill="rgba(255, 255, 255, 0)" cx="1118.7119750976562" cy="343.1061325073242"/><circle class="node overlay" r="72.69120635598269" stroke="none" fill="rgba(255, 255, 255, 0)" cx="1257.4451904296875" cy="-87.06231689453125"/><circle class="node ring" r="120.63403849833232" fill="none" stroke="rgba(255, 255, 255, 0)" stroke-width="10px" cx="-785.7381076812744" cy="22.842023849487305"/><circle class="node ring" r="121.37477616841198" fill="none" stroke="rgba(255, 255, 255, 0)" stroke-width="10px" cx="114.23230171203613" cy="22.842023849487305"/><circle class="node ring" r="99.81379884619285" fill="none" stroke="rgba(255, 255, 255, 0)" stroke-width="10px" cx="114.23230171203613" cy="629.1796264648438"/><circle class="node ring" r="94.35229387040818" fill="none" stroke="rgba(255, 255, 255, 0)" stroke-width="10px" cx="-785.7381076812744" cy="706.586669921875"/><circle class="node ring" r="98.22564079451323" fill="none" stroke="rgba(255, 255, 255, 0)" stroke-width="10px" cx="696.5093994140625" cy="22.842023849487305"/><circle class="node ring" r="76.99660873355334" fill="none" stroke="rgba(255, 255, 255, 0)" stroke-width="10px" cx="1118.7119750976562" cy="343.1061325073242"/><circle class="node ring" r="77.69120635598269" fill="none" stroke="rgba(255, 255, 255, 0)" stroke-width="10px" cx="1257.4451904296875" cy="-87.06231689453125"/><path class="relationship overlay" fill="rgba(255, 255, 255, 0)" stroke="rgba(255, 255, 255, 0)" stroke-width="10px" transform="translate(-785.7381076812744,22.842023849487305) rotate(0)" d="M 126.63403849833232 4 L 740.5956332248986 4 L 740.5956332248986 16 L 772.5956332248986 0 L 740.5956332248986 -16 L 740.5956332248986 -4 L 126.63403849833232 -4 Z"/><path class="relationship overlay" fill="rgba(255, 255, 255, 0)" stroke="rgba(255, 255, 255, 0)" stroke-width="10px" transform="translate(114.23230171203613,22.842023849487305) rotate(90)" d="M 127.37477616841198 4 L 468.5238037691636 4 L 468.5238037691636 16 L 500.5238037691636 0 L 468.5238037691636 -16 L 468.5238037691636 -4 L 127.37477616841198 -4 Z"/><path class="relationship overlay" fill="rgba(255, 255, 255, 0)" stroke="rgba(255, 255, 255, 0)" stroke-width="10px" transform="translate(-785.7381076812744,706.586669921875) rotate(-90)" d="M 100.35229387040818 4 L 525.1106075740554 4 L 525.1106075740554 16 L 557.1106075740554 0 L 525.1106075740554 -16 L 525.1106075740554 -4 L 100.35229387040818 -4 Z"/><path class="relationship overlay" fill="rgba(255, 255, 255, 0)" stroke="rgba(255, 255, 255, 0)" stroke-width="10px" transform="translate(696.5093994140625,22.842023849487305) rotate(180)" d="M 104.22564079451323 4 L 422.9023215336144 4 L 422.9023215336144 16 L 454.9023215336144 0 L 422.9023215336144 -16 L 422.9023215336144 -4 L 104.22564079451323 -4 Z"/><path class="relationship overlay" fill="rgba(255, 255, 255, 0)" stroke="rgba(255, 255, 255, 0)" stroke-width="10px" transform="translate(1118.7119750976562,343.1061325073242) rotate(-142.8176623871023)" d="M 82.99660873355334 4 L 393.70276400019065 4 L 393.70276400019065 16 L 425.70276400019065 0 L 393.70276400019065 -16 L 393.70276400019065 -4 L 82.99660873355334 -4 Z"/><path class="relationship overlay" fill="rgba(255, 255, 255, 0)" stroke="rgba(255, 255, 255, 0)" stroke-width="10px" transform="translate(1257.4451904296875,-87.06231689453125) rotate(168.91444803578435)" d="M 83.69120635598269 4 L 435.37555388294925 4 L 435.37555388294925 16 L 467.37555388294925 0 L 435.37555388294925 -16 L 435.37555388294925 -4 L 83.69120635598269 -4 Z"/></g></svg>